HIERARCHY
ROOT Hips
{
	OFFSET -14.64140 90.27770 -84.91600
	CHANNELS 6 Xposition Yposition Zposition Zrotation Xrotation Yrotation
	JOINT Spine
	{
		OFFSET 0.00000 13.20850 -1.60436
		CHANNELS 3 Zrotation Xrotation Yrotation
		JOINT Spine1
		{
			OFFSET 0.00000 8.61716 0.00000
			CHANNELS 3 Zrotation Xrotation Yrotation
			JOINT Spine2
			{
				OFFSET 0.00000 8.61717 0.00000
				CHANNELS 3 Zrotation Xrotation Yrotation
				JOINT Spine3
				{
					OFFSET 0.00000 8.61717 0.00000
					CHANNELS 3 Zrotation Xrotation Yrotation
					JOINT Neck
					{
						OFFSET 0.00000 11.07920 1.10792
						CHANNELS 3 Zrotation Xrotation Yrotation
						JOINT Neck1
						{
							OFFSET 0.00000 7.08032 0.00000
							CHANNELS 3 Zrotation Xrotation Yrotation
							JOINT Head
							{
								OFFSET 0.00000 7.08031 0.00000
								CHANNELS 3 Zrotation Xrotation Yrotation
								End site
								{
									OFFSET 0.00000 0.00000 0.00000
								}
							}
						}
					}
					JOINT RightShoulder
					{
						OFFSET -0.01000 7.91373 5.19711
						CHANNELS 3 Zrotation Xrotation Yrotation
						JOINT RightArm
						{
							OFFSET -18.41580 0.00000 0.00000
							CHANNELS 3 Zrotation Xrotation Yrotation
							JOINT RightForeArm
							{
								OFFSET -29.11090 0.00000 0.00000
								CHANNELS 3 Zrotation Xrotation Yrotation
								JOINT RightHand
								{
									OFFSET -24.65040 0.00000 0.00000
									CHANNELS 3 Zrotation Xrotation Yrotation
									JOINT RightHandThumb1
									{
										OFFSET -5.35114 -0.85590 3.97906
										CHANNELS 3 Zrotation Xrotation Yrotation
										JOINT RightHandThumb2
										{
											OFFSET -4.52789 0.00000 0.00000
											CHANNELS 3 Zrotation Xrotation Yrotation
											JOINT RightHandThumb3
											{
												OFFSET -2.46976 0.00000 0.00000
												CHANNELS 3 Zrotation Xrotation Yrotation
												End site
												{
													OFFSET 0.00000 0.00000 0.00000
												}
											}
										}
									}
									JOINT RightHandIndex1
									{
										OFFSET -14.26970 0.00000 2.88139
										CHANNELS 3 Zrotation Xrotation Yrotation
										JOINT RightHandIndex2
										{
											OFFSET -5.48836 0.00000 0.00000
											CHANNELS 3 Zrotation Xrotation Yrotation
											JOINT RightHandIndex3
											{
												OFFSET -3.01859 0.00000 0.00000
												CHANNELS 3 Zrotation Xrotation Yrotation
												End site
												{
													OFFSET 0.00000 0.00000 0.00000
												}
											}
										}
									}
									JOINT RightHandMiddle1
									{
										OFFSET -14.26970 0.00000 -0.09147
										CHANNELS 3 Zrotation Xrotation Yrotation
										JOINT RightHandMiddle2
										{
											OFFSET -6.17441 0.00000 0.00000
											CHANNELS 3 Zrotation Xrotation Yrotation
											JOINT RightHandMiddle3
											{
												OFFSET -3.56743 0.00000 0.00000
												CHANNELS 3 Zrotation Xrotation Yrotation
												End site
												{
													OFFSET 0.00000 0.00000 0.00000
												}
											}
										}
									}
									JOINT RightHandRing1
									{
										OFFSET -12.69180 0.00000 -3.06433
										CHANNELS 3 Zrotation Xrotation Yrotation
										JOINT RightHandRing2
										{
											OFFSET -5.62556 0.00000 0.00000
											CHANNELS 3 Zrotation Xrotation Yrotation
											JOINT RightHandRing3
											{
												OFFSET -3.56744 0.00000 0.00000
												CHANNELS 3 Zrotation Xrotation Yrotation
												End site
												{
													OFFSET 0.00000 0.00000 0.00000
												}
											}
										}
									}
									JOINT RightHandPinky1
									{
										OFFSET -11.11390 0.00000 -6.03719
										CHANNELS 3 Zrotation Xrotation Yrotation
										JOINT RightHandPinky2
										{
											OFFSET -4.52789 0.00000 0.00000
											CHANNELS 3 Zrotation Xrotation Yrotation
											JOINT RightHandPinky3
											{
												OFFSET -2.46976 0.00000 0.00000
												CHANNELS 3 Zrotation Xrotation Yrotation
												End site
												{
													OFFSET 0.00000 0.00000 0.00000
												}
											}
										}
									}
								}
							}
						}
					}
					JOINT LeftShoulder
					{
						OFFSET 0.01000 7.91373 5.19711
						CHANNELS 3 Zrotation Xrotation Yrotation
						JOINT LeftArm
						{
							OFFSET 18.41580 0.00000 0.00000
							CHANNELS 3 Zrotation Xrotation Yrotation
							JOINT LeftForeArm
							{
								OFFSET 29.11090 0.00000 0.00000
								CHANNELS 3 Zrotation Xrotation Yrotation
								JOINT LeftHand
								{
									OFFSET 24.65040 0.00000 0.00000
									CHANNELS 3 Zrotation Xrotation Yrotation
									JOINT LeftHandThumb1
									{
										OFFSET 5.35114 -0.85590 3.97906
										CHANNELS 3 Zrotation Xrotation Yrotation
										JOINT LeftHandThumb2
										{
											OFFSET 4.52789 0.00000 0.00000
											CHANNELS 3 Zrotation Xrotation Yrotation
											JOINT LeftHandThumb3
											{
												OFFSET 2.46977 0.00000 0.00000
												CHANNELS 3 Zrotation Xrotation Yrotation
												End site
												{
													OFFSET 0.00000 0.00000 0.00000
												}
											}
										}
									}
									JOINT LeftHandIndex1
									{
										OFFSET 14.26970 0.00000 2.88139
										CHANNELS 3 Zrotation Xrotation Yrotation
										JOINT LeftHandIndex2
										{
											OFFSET 5.48836 0.00000 0.00000
											CHANNELS 3 Zrotation Xrotation Yrotation
											JOINT LeftHandIndex3
											{
												OFFSET 3.01859 0.00000 0.00000
												CHANNELS 3 Zrotation Xrotation Yrotation
												End site
												{
													OFFSET 0.00000 0.00000 0.00000
												}
											}
										}
									}
									JOINT LeftHandMiddle1
									{
										OFFSET 14.26970 0.00000 -0.09147
										CHANNELS 3 Zrotation Xrotation Yrotation
										JOINT LeftHandMiddle2
										{
											OFFSET 6.17440 0.00000 0.00000
											CHANNELS 3 Zrotation Xrotation Yrotation
											JOINT LeftHandMiddle3
											{
												OFFSET 3.56744 0.00000 0.00000
												CHANNELS 3 Zrotation Xrotation Yrotation
												End site
												{
													OFFSET 0.00000 0.00000 0.00000
												}
											}
										}
									}
									JOINT LeftHandRing1
									{
										OFFSET 12.69180 0.00000 -3.06433
										CHANNELS 3 Zrotation Xrotation Yrotation
										JOINT LeftHandRing2
										{
											OFFSET 5.62556 0.00000 0.00000
											CHANNELS 3 Zrotation Xrotation Yrotation
											JOINT LeftHandRing3
											{
												OFFSET 3.56744 0.00000 0.00000
												CHANNELS 3 Zrotation Xrotation Yrotation
												End site
												{
													OFFSET 0.00000 0.00000 0.00000
												}
											}
										}
									}
									JOINT LeftHandPinky1
									{
										OFFSET 11.11390 0.00000 -6.03719
										CHANNELS 3 Zrotation Xrotation Yrotation
										JOINT LeftHandPinky2
										{
											OFFSET 4.52789 0.00000 0.00000
											CHANNELS 3 Zrotation Xrotation Yrotation
											JOINT LeftHandPinky3
											{
												OFFSET 2.46976 0.00000 0.00000
												CHANNELS 3 Zrotation Xrotation Yrotation
												End site
												{
													OFFSET 0.00000 0.00000 0.00000
												}
											}
										}
									}
								}
							}
						}
					}
					JOINT pCube4
					{
						OFFSET 0.00000 10.91090 1.10792
						CHANNELS 3 Zrotation Xrotation Yrotation
						End site
						{
							OFFSET 0.00000 0.00000 0.00000
						}
					}
				}
			}
		}
	}
	JOINT RightUpLeg
	{
		OFFSET -9.98441 0.00000 0.00000
		CHANNELS 3 Zrotation Xrotation Yrotation
		JOINT RightLeg
		{
			OFFSET 0.00000 -42.11790 0.00000
			CHANNELS 3 Zrotation Xrotation Yrotation
			JOINT RightFoot
			{
				OFFSET 0.00000 -45.00020 -0.00001
				CHANNELS 3 Zrotation Xrotation Yrotation
				JOINT RightForeFoot
				{
					OFFSET 0.00000 -3.74820 0.00000
					CHANNELS 3 Zrotation Xrotation Yrotation
					JOINT RightToeBase
					{
						OFFSET 0.00000 0.06325 14.43120
						CHANNELS 3 Zrotation Xrotation Yrotation
						End site
						{
							OFFSET 0.00000 0.00000 0.00000
						}
					}
				}
			}
		}
	}
	JOINT LeftUpLeg
	{
		OFFSET 9.98441 0.00000 0.00000
		CHANNELS 3 Zrotation Xrotation Yrotation
		JOINT LeftLeg
		{
			OFFSET 0.00000 -42.11800 0.00000
			CHANNELS 3 Zrotation Xrotation Yrotation
			JOINT LeftFoot
			{
				OFFSET 0.00000 -45.00070 0.00000
				CHANNELS 3 Zrotation Xrotation Yrotation
				JOINT LeftForeFoot
				{
					OFFSET 0.00000 -3.74824 0.00000
					CHANNELS 3 Zrotation Xrotation Yrotation
					JOINT LeftToeBase
					{
						OFFSET 0.00000 0.06325 14.43110
						CHANNELS 3 Zrotation Xrotation Yrotation
						End site
						{
							OFFSET 0.00000 0.00000 0.00000
						}
					}
				}
			}
		}
	}
}
MOTION
Frames: 4
Frame Time: 0.050000
-0.022631631689676582 0.01462428791650213 0.013402657062339755 -0.01956675727358345 -0.018108117896079426 0.027476769173717414 -3.2941786557665718 0.93846969997745 -0.7950227316444888 -0.9413545126107575 3.5178167751177543 0.36039631781024445 -1.10249998888043 -1.7931941235801176 -3.6174355709128125 0.47815200862216894 0.48033289719825134 -1.1493514688349789 -0.6718797395899699 11.564307796355708 0.5824835354385633 -0.18890473529085555 -1.0343605711555004 1.1730471829353113 -0.33176364661202284 -16.79526547737505 0.07202396283046686 -4.24836666007901 1.618568584408203 -12.940001558037768 70.8535335205159 20.254639526150974 10.093368906090243 17.06063454830466 3.764095185993487 73.20487685778893 16.16365260589244 -0.3651813914016754 -3.5922578104573906 4.534764204215139 -0.13112871593424374 -1.5661862254772099 -0.009169531610758149 -0.047310517946817975 -56.22257626886978 0.02888660761038422 0.013903139537763282 -56.20082570619327 -38.78608610559056 -0.02000509126583035 -0.03365237947549317 -0.015238181592479562 0.007945701663590295 -0.012438087867664191 0.03981766307754284 0.022886957368802766 -0.042184491538426114 -36.6938209220872 -0.03218491142770041 0.043054429608560346 0.017185353078108936 -0.045646368842395105 0.028606850547887485 0.021113181807550993 0.02981423229802432 0.014386245128473512 -19.71795920760654 -0.024638915577599667 0.010769778114430886 -0.03069885140672831 -0.012549138808905678 -0.025838417780552465 0.016145894901213303 0.0065589427860207015 0.01727166783798399 24.09092212577204 -0.028103245719678715 0.02216019299799218 28.862676266532027 0.02741130106161571 -0.04126666215238281 28.839121282684314 0.048879592079420706 -0.016387729150608515 8.473304368505886 1.8590331191160254 10.026966260685718 -64.07801960529265 21.22626651187802 -28.978582288322816 -44.90020461795214 0.3377314445390803 -74.85076735282873 -11.66716133456798 -4.3288053058656635 3.4697380507198945 -0.4425519088199267 0.0638136820921173 -8.124493238462817 0.044288999088631716 -0.047783053895328706 44.55162110938146 -0.01171460742593436 -0.04317013224525263 44.55625454279306 12.453570182918655 0.029686301199628656 -0.017468613034899095 0.041605598359809225 -0.028461740700567253 -0.04168305909975309 0.010363899642440519 -0.019514053436131985 0.016712657535716925 11.154894309902858 -0.034271558717295376 -0.03137147799458248 0.0013772259940284136 0.0013071124761778366 -0.015193227800906296 -0.047582728792440805 -0.023466247885564825 0.011829370619590543 4.775379699344623 -0.014460391036179408 -0.039408184796562794 0.041022559804362015 0.01425545247434435 -0.021957566328519043 0.005687414370209354 -0.03181482383477691 -0.0017638499121306315 -5.556346318344959 0.04037734984054387 -0.030826401303191586 -6.730132035489119 -0.03414405184827419 -0.04381876725318475 -6.702570468339367 -0.015484679169597832 0.01860012709961106 0.040556873819301106 -0.014708361685630916 0.007778207240030437 8.040305572136536 3.484095004478314 -19.22518046676342 0.03025955124994218 10.411967388107911 -0.03301710021751064 -5.664563169743807 -15.644336840743684 3.218836468747493 0.04810590575906692 -0.02851023138333585 0.008641855463924477 0.008644970304503207 4.67182595920676 0.02645792514181688 12.44052039197667 -8.237729324719368 6.865404954918574 -0.02697814038661249 46.34134104581011 0.017314767779028635 -4.325152808256345 -14.705926210116901 -3.869678065895357 0.015080668145669955 0.008343515060022812 -0.008963491168268348 -0.007141859505955052 -10.777869097247308 0.00875363402786037 
0.04633456026502297 -0.01775397346278509 0.017331601110088687 0.021132978742091076 0.019901658623737644 0.02993479501877096 -3.3875922557343743 0.9471851755409889 -0.8053664457693754 -0.9773204273013609 3.537671226130412 0.28964866595590216 -1.121095451933047 -1.8003792908711669 -3.5848823829223604 0.44624081890110995 0.5125414990437563 -1.1662490357865722 -0.7200036400443268 11.523162722614549 0.6298160641855229 -0.1999567082322833 -1.0251845483976956 1.2843604533223631 -0.34045277537110114 -16.78117204477864 0.1229983788657853 -4.126703949577434 1.5498720260003023 -12.86985501852307 71.02034062115855 20.268299942587017 10.32433737444777 19.751897766604237 3.7624198612151116 73.92526924966509 16.164948258488668 -0.3272935602260135 -3.6401860337726877 4.499120144419441 -0.14337036062955072 -1.6363450164038473 -0.028045015328330595 -0.018538969581128953 -56.21161662775824 -0.007231794655549043 -0.035274027384589325 -56.268584765811816 -38.75473238918171 -0.02629941118384419 -0.008371665000001574 0.01980031117830372 -0.026905803367479785 -0.0461446479356897 -0.030276381695082604 0.004687645839389877 0.0397144807003025 -36.652358648491585 0.04342186972134872 -0.01447376066196284 -0.017965215676554024 -0.01426321053528288 0.009289268097254796 -0.03263122526716822 -0.00021709636267537995 -0.03657638852252087 -19.732646900903923 0.001599740023549937 0.0049672651398719 0.01971812259505138 -0.012192458872118046 0.007055632317887719 0.017994636108660825 -0.024781218437135297 0.026040099555222292 24.07922725438468 -0.002351328571163911 0.03962719811973306 28.900983410638737 0.049443383147151514 -0.0326113722887748 28.87579558610831 -0.010333788285250377 -0.030211417237100666 8.487930192916814 1.8538515655120453 9.951727755088331 -63.94493574181866 21.099925496118694 -29.464126035922018 -48.636261095547866 1.5770604773355863 -76.56562194668521 -12.13940614954502 -4.297387189013074 3.5069651083848576 -0.48820967804341164 0.03048938141309778 -8.07956772135724 0.016011459233784733 -0.049014710280841645 44.540117263727716 0.03700719000443213 -0.007983789082367706 44.53799884130567 12.447366802098355 -0.024096716516783207 -0.047650329258304605 -0.00515669272096308 0.03366113343253748 0.015415557819011433 -0.026333635785602636 -0.013925340572654042 0.03472748948433946 11.13579277596674 -0.02015618846149696 -0.00017621939752962475 -0.04819088111545603 -0.029582834589073296 0.04440617530596795 -0.045222298967007794 0.024376958111413535 0.0386595161661957 4.805134838694888 0.013281149937069877 0.021643487103457565 -0.026987879620849406 -0.013056364881717795 0.0006241928746849016 0.01094593892114572 0.020511681264998426 0.004408260233090832 -5.610302601220815 -0.020063943582488405 -0.014338268709721654 -6.691993212845127 0.001373295964377653 0.008064458055109455 -6.680641953522782 -0.016080843136838174 -0.03870065230411955 0.03665972809541359 0.03770676961470624 -0.03184178809215766 8.054861284062651 3.4632135459695585 -19.17124336731709 0.018590088583152815 10.42403803127295 -0.00816359590660374 -5.59567063486424 -15.693919225602288 3.157211783008891 0.01999570916460019 0.0026126411200646637 0.006483739497387204 -0.012488950284016864 4.683962777744362 0.026303620654382926 12.484446773252914 -8.286776122391293 6.850299208920484 -0.027410489276023173 46.42478404842611 -0.018050880764062735 -4.3369644996442505 -14.756678747291167 -3.850288946314629 0.011080870710701816 -0.012057777796323473 -0.0270446592052034 0.013729706071335751 -10.726960946550426 -0.026529724788036748 
-0.035787626499968465 -0.006979856341764463 0.008004180280456302 0.03948034447276155 0.04484088534736994 -0.023689474452204883 -3.3669354242323513 0.8592173960554349 -0.7850951119945421 -1.0014642355619936 3.523737270363412 0.3451877128728139 -1.0705242753409139 -1.749530143757838 -3.6527033118826964 0.45662057621928365 0.4496923153709965 -1.217390426702335 -0.7186608770275544 11.469862541828672 0.6609150401673568 -0.23705914270725653 -1.071185711686857 1.3356629588949596 -0.3630198960241376 -16.693509273387676 0.10092937367766976 -4.188782181693916 1.5415619716432984 -12.937886097294696 71.18386755829471 19.761092305057808 10.50357263189724 20.867489713853224 3.4779131358711535 73.346248246036 16.406855175285806 -0.3347716657731284 -3.8157251932337424 4.563278038547178 -0.15192571511310007 -1.604871402040254 -0.023164283082666298 -0.019652983339231815 -56.25738575293155 0.028422349918987292 0.008855251216587095 -56.19059290068365 -38.74603673270654 0.017864338167887638 0.022892787506083128 0.03375915855580361 0.008527391711035516 0.03977458737756194 -0.004989545098293858 -0.030591817890988145 0.022703297804759923 -36.72489655759272 -0.014764714778166842 0.01963113035324254 0.028857995432331144 0.014784932556139963 -0.046455575921456854 -0.02753895883066508 0.016110326171039135 -0.0016457114278003082 -19.758527217305563 0.030539295321888423 -0.03974258986559497 -0.02181751533795408 0.020009690582374774 0.02932211298716014 0.02371185157265566 0.0340121887900797 -0.003978967820908812 24.02646508424872 0.02770024765352662 0.03562580626906679 28.866591414787067 0.0012111704664849363 -0.013744915940773494 28.838234124192148 -0.009160414909950523 0.0043957828661837575 8.543975124491114 1.8300595034200944 9.978858611624805 -63.855304804015205 21.078922751696098 -29.457147124247665 -50.87650940636605 1.8066202325021117 -77.48849795465402 -12.248959174116065 -4.602089259296954 3.7267406290591563 -0.5090725899629481 0.05336867790819806 -8.081869130008284 0.04055091501527169 -0.015098026823889435 44.59070197622015 0.022242495369173526 -0.039530299576775056 44.53881212057497 12.48029966353183 0.029574916097674875 0.01620364055397782 -0.041029821083877184 0.024155766961485386 0.00923393682254645 0.005544855617719263 0.027818820697800305 0.010264054659290412 11.10216379727451 -0.01229329033111422 0.008636280807134966 -0.004532378078339819 0.004438265061620829 -0.02674913640315066 0.029629774416802753 -0.03159762362176338 0.0002220859224100765 4.771556214430688 0.006345928080433193 0.030296353160823925 -0.04504673675237734 0.015114082622222302 -0.034965156716834096 -0.039915360690429134 -0.03505783343140415 0.013540272354807283 -5.573790170308483 -0.024717793213177644 0.03401721070657055 -6.712407207952088 0.012331954668847355 0.041434480169395674 -6.75225016543272 -0.01094603452451714 0.02459221014006955 0.0402831150814764 0.009690189855027991 -0.027881246776220666 8.053382925645751 3.525209620283496 -19.234741443009206 0.03377791793695709 10.413914729700728 -0.03540064027431104 -5.619883059275395 -15.639279022077062 3.180279661828451 0.038204206623604686 -0.005120634847273632 0.021933398573379125 0.02828784687646068 4.687051939190462 -0.028742535623470185 12.489200084233431 -8.250525368511875 6.8669207160847785 0.0032344713076253423 46.407809853373635 -0.014058282401563524 -4.281529216756099 -14.715383921387362 -3.837254276172958 -0.027735911588772588 -0.01946743413690544 0.0004371347381096968 -0.021633200143422095 -10.749060468028906 -0.025106828691999563 
0.02910482700378649 -0.016717943165104627 -0.0450566422433682 -0.014794785173223005 -0.005525543701852253 0.007224082637857084 -3.3920477301331893 0.8454209122263413 -0.7477078474923537 -1.017591206391049 3.530843199984904 0.375267962288796 -1.1510724415490778 -1.7998301777803962 -3.5655727700139006 0.4366425436562693 0.43743891441544835 -1.1754320685955748 -0.6734566462991066 11.5632282929988 0.6381819178917036 -0.2192946225197572 -1.0342866005880826 1.250679626786332 -0.3001698909621603 -16.651921842566498 0.0987579028190166 -4.244447600282264 1.6247605623635228 -12.942027159089774 71.24633725710669 19.088379890204376 10.629803262700706 21.507939984100208 2.7459601078491818 72.20548798850125 16.76301888676101 -0.36739189790440424 -3.9957967463700528 4.52719762877978 -0.16281963856328124 -1.5656177187598919 -0.010475337457858017 -0.04997869689273047 -56.243644445504295 -0.017326024052848405 -0.016233764752115725 -56.19319316720817 -38.743967631771355 0.005892316530005756 0.041797423352390846 0.0033798502219285027 0.0004839711925712565 -0.004843742853513546 0.03325335765739278 -0.005384392843586266 -0.010511511307365126 -36.69478176575341 0.02265499676796586 -0.04226582907558364 0.04531932351653576 -0.017138373961985042 0.04589345204914832 -0.004405256989609096 0.0404113482516195 -0.020374251095912014 -19.755138250140625 -0.014730437849749315 -0.030847820833645182 -0.021598704483800177 -0.04045532613744565 -0.01580292528017023 0.049081085514834706 0.008499106731321262 -0.02913102280735838 24.076937167990497 0.033873492004553814 0.029056648151601874 28.847830106283688 0.008216890133521875 -0.026710886768186403 28.881078318492044 -0.025229959982632544 0.015429957628777196 8.477078245956472 1.8861822451053405 10.032156623472611 -63.830092452205285 21.149784012632434 -29.1826381635396 -51.815557576551 1.0756374924637335 -78.12760430718741 -12.254476287701895 -4.993018625815478 4.074777081794518 -0.484387995167004 0.1012638242431298 -8.159648748669614 -0.02738300187641313 -0.02574020242735061 44.51908461123216 0.005225411898427377 -0.044608560575665576 44.57843921540133 12.497584138276032 0.001735895375551155 0.026962638613165 -0.0025374218913037307 0.020288175070853606 0.00665629328062998 -0.016015756246844717 0.005417169009211274 0.043982561996453 11.104813764328439 0.004077090284081213 -0.03878068965663381 -0.014294624335598692 -0.005535508882317453 -0.02450190389347094 -0.0015788741142310995 0.02387515169812631 0.0031266052779206476 4.772545203733288 -0.02955816322562948 -0.02613290385957023 -0.025609217680645422 -0.008056536123833679 0.02402344240735562 0.034243118992104325 0.010534465386696296 0.020083741543045805 -5.623470465226864 -0.04411358363632257 0.013709922799674742 -6.769900850499571 -0.012294447247242836 -0.006461004539968856 -6.7429974184892405 -0.03582608828951744 -0.03272920628646217 -0.030854712954351243 -0.031804736554120354 -0.03208485337033397 8.060617185999071 3.5299177078737034 -19.239609807428668 -0.006639893753287765 10.415652012426465 0.028742345817710173 -5.617579800454794 -15.6866285430813 3.165586329559412 0.004139817168364848 0.027695227185013917 -0.023278553637810968 0.01796556524816705 4.662369980074817 0.03998775464298213 12.471914358541719 -8.258404715134708 6.853116243258211 -0.049887590889428846 46.35338256818266 -0.033942434540639645 -4.352454075989656 -14.70650368041294 -3.876017342576387 -0.002856861641336716 0.02964771142778037 0.027230597479992326 -0.0014420544938588671 -10.69822418439297 0.009690780005918869 
